<svg width="1600" height="860" viewBox="0 0 1600 860" fill="none" xmlns="http://www.w3.org/2000/svg" role="img" aria-labelledby="title desc">
  <title id="title">SocioAtlas README banner</title>
  <desc id="desc">A clean banner showing SocioAtlas taking an event, mapping reactions in a knowledge graph, and inspecting stage-based social outcomes.</desc>
  <defs>
    <linearGradient id="bg" x1="120" y1="90" x2="1480" y2="780" gradientUnits="userSpaceOnUse">
      <stop stop-color="#FAF7F1"/>
      <stop offset="1" stop-color="#F3EEE5"/>
    </linearGradient>
    <linearGradient id="panel" x1="160" y1="360" x2="1440" y2="700" gradientUnits="userSpaceOnUse">
      <stop stop-color="#FFFFFF" stop-opacity="0.97"/>
      <stop offset="1" stop-color="#FFFDF9" stop-opacity="0.94"/>
    </linearGradient>
    <filter id="shadow" x="120" y="310" width="1360" height="390" filterUnits="userSpaceOnUse" color-interpolation-filters="sRGB">
      <feFlood flood-opacity="0" result="BackgroundImageFix"/>
      <feColorMatrix in="SourceAlpha" type="matrix" values="0 0 0 0 0 0 0 0 0 0 0 0 0 0 0 0 0 0 127 0" result="hardAlpha"/>
      <feOffset dy="20"/>
      <feGaussianBlur stdDeviation="24"/>
      <feColorMatrix type="matrix" values="0 0 0 0 0.16 0 0 0 0 0.14 0 0 0 0 0.11 0 0 0 0.07 0"/>
      <feBlend mode="normal" in2="BackgroundImageFix" result="effect1_dropShadow_1_1"/>
      <feBlend mode="normal" in="SourceGraphic" in2="effect1_dropShadow_1_1" result="shape"/>
    </filter>
  </defs>

  <rect width="1600" height="860" rx="36" fill="url(#bg)"/>
  <circle cx="220" cy="104" r="120" fill="#4E8DFF" fill-opacity="0.05"/>
  <circle cx="1408" cy="676" r="150" fill="#F08C5D" fill-opacity="0.05"/>
  <path d="M128 116H1472" stroke="#E0D7CA" stroke-dasharray="3 16"/>

  <text x="174" y="132" fill="#4E8DFF" font-family="Inter, Arial, sans-serif" font-size="24" font-weight="800" letter-spacing="0.16em">SOCIOATLAS</text>
  <text x="174" y="204" fill="#26242B" font-family="Inter, Arial, sans-serif" font-size="66" font-weight="800">Simulate how societies react</text>
  <text x="174" y="256" fill="#26242B" font-family="Inter, Arial, sans-serif" font-size="66" font-weight="800">to events over time</text>
  <text x="174" y="320" fill="#726A60" font-family="Inter, Arial, sans-serif" font-size="28" font-weight="500">Describe an event, watch coalitions form on the graph, and inspect how incentives</text>
  <text x="174" y="356" fill="#726A60" font-family="Inter, Arial, sans-serif" font-size="28" font-weight="500">shift across stages from first reaction to narrative stabilization.</text>

  <g filter="url(#shadow)">
    <rect x="160" y="404" width="1280" height="278" rx="28" fill="url(#panel)"/>
    <rect x="160.75" y="404.75" width="1278.5" height="276.5" rx="27.25" stroke="#E7DFD2" stroke-width="1.5"/>
  </g>

  <g>
    <rect x="184" y="438" width="300" height="196" rx="24" fill="#FBF8F3"/>
    <rect x="184.75" y="438.75" width="298.5" height="194.5" rx="23.25" stroke="#E6DED2" stroke-width="1.5"/>
    <text x="200" y="478" fill="#F08C5D" font-family="Inter, Arial, sans-serif" font-size="18" font-weight="800" letter-spacing="0.18em">EVENT INPUT</text>
    <text x="200" y="520" fill="#26242B" font-family="Inter, Arial, sans-serif" font-size="28" font-weight="700">Start with a scenario</text>
    <text x="200" y="558" fill="#726A60" font-family="Inter, Arial, sans-serif" font-size="20" font-weight="500">Policy, product launch, crisis,</text>
    <text x="200" y="586" fill="#726A60" font-family="Inter, Arial, sans-serif" font-size="20" font-weight="500">or narrative shift.</text>
    <rect x="200" y="604" width="220" height="14" rx="7" fill="#FFFFFF" stroke="#E7DFD2"/>
  </g>

  <g>
    <rect x="534" y="438" width="544" height="198" rx="24" fill="#FFFEFC"/>
    <rect x="534.75" y="438.75" width="542.5" height="196.5" rx="23.25" stroke="#E6DED2" stroke-width="1.5"/>
    <text x="564" y="478" fill="#4E8DFF" font-family="Inter, Arial, sans-serif" font-size="18" font-weight="800" letter-spacing="0.18em">KNOWLEDGE GRAPH</text>

    <!-- Adjust the second value in translate(0, 10) to move this cluster up/down -->
    <g transform="translate(0, 50)">
      <g opacity="0.55">
        <path d="M630 545L722 496" stroke="#C3CEDF" stroke-width="2"/>
        <path d="M722 496L822 540" stroke="#C3CEDF" stroke-width="2"/>
        <path d="M822 540L916 478" stroke="#D8C3B8" stroke-width="2"/>
        <path d="M722 496L914 562" stroke="#D8C3B8" stroke-width="2"/>
        <path d="M598 478L722 496" stroke="#C3CEDF" stroke-width="2"/>
        <path d="M852 454L916 478" stroke="#C3CEDF" stroke-width="2"/>
        <path d="M852 454L994 536" stroke="#C3CEDF" stroke-width="2"/>
        <path d="M822 540L994 536" stroke="#D8C3B8" stroke-width="2"/>
        <path d="M676 454L822 540" stroke="#D8C3B8" stroke-width="2"/>
      </g>

      <circle cx="598" cy="478" r="14" fill="#56B48F"/>
      <circle cx="676" cy="454" r="10" fill="#4E8DFF"/>
      <circle cx="722" cy="496" r="16" fill="#4E8DFF"/>
      <circle cx="822" cy="540" r="16" fill="#56B48F"/>
      <circle cx="852" cy="454" r="18" fill="#F08C5D"/>
      <circle cx="916" cy="478" r="18" fill="#E77C63"/>
      <circle cx="994" cy="536" r="11" fill="#B98FE8"/>
      <circle cx="914" cy="562" r="10" fill="#D3A65A"/>
    </g>

    <!-- <rect x="564" y="590" width="134" height="24" rx="12" fill="#EEF5FF"/>
    <text x="580" y="607" fill="#4E8DFF" font-family="Inter, Arial, sans-serif" font-size="14" font-weight="800">Agents → Groups</text>
    <rect x="712" y="590" width="150" height="24" rx="12" fill="#FFF1EB"/>
    <text x="728" y="607" fill="#F08C5D" font-family="Inter, Arial, sans-serif" font-size="14" font-weight="800">Alliances + Conflicts</text> -->
  </g>

  <g>
    <rect x="1104" y="438" width="300" height="198" rx="24" fill="#FBF8F3"/>
    <rect x="1104.75" y="438.75" width="298.5" height="196.5" rx="23.25" stroke="#E6DED2" stroke-width="1.5"/>
    <text x="1134" y="478" fill="#26242B" font-family="Inter, Arial, sans-serif" font-size="22" font-weight="800">Stage analysis</text>
    <rect x="1134" y="502" width="196" height="26" rx="13" fill="#EEF5FF"/>
    <text x="1148" y="520" fill="#4E8DFF" font-family="Inter, Arial, sans-serif" font-size="14" font-weight="800">T1 Immediate reaction</text>
    <rect x="1134" y="538" width="176" height="26" rx="13" fill="#FFF1EB"/>
    <text x="1148" y="556" fill="#F08C5D" font-family="Inter, Arial, sans-serif" font-size="14" font-weight="800">T3 Social spread</text>
    <rect x="1134" y="574" width="194" height="26" rx="13" fill="#EEFAF5"/>
    <text x="1148" y="592" fill="#56B48F" font-family="Inter, Arial, sans-serif" font-size="14" font-weight="800">T5 Stabilization</text>
    <!-- <text x="1134" y="622" fill="#726A60" font-family="Inter, Arial, sans-serif" font-size="17" font-weight="600">Inspect stage snapshots for</text> -->
    <!-- <text x="1134" y="646" fill="#726A60" font-family="Inter, Arial, sans-serif" font-size="17" font-weight="600">stance shifts and next states.</text> -->
  </g>

  <path d="M500 537H520" stroke="#7AA5F4" stroke-width="6" stroke-linecap="round"/>
  <path d="M1084 537H1094" stroke="#DFA080" stroke-width="6" stroke-linecap="round"/>

  <g>
    <rect x="160" y="716" width="1280" height="92" rx="24" fill="#FFFDFC" stroke="#E7DFD2"/>
    <text x="800" y="760" text-anchor="middle" fill="#26242B" font-family="Inter, Arial, sans-serif" font-size="30" font-weight="800">Event → Agents → Coalitions → Outcomes</text>
    <text x="800" y="792" text-anchor="middle" fill="#726A60" font-family="Inter, Arial, sans-serif" font-size="22" font-weight="600">Explore social dynamics, not static predictions.</text>
  </g>
</svg>
